<mxfile host="app.diagrams.net" modified="2023-10-11T07:18:00.888Z" agent="Mozilla/5.0 (X11; Linux x86_64) AppleWebKit/537.36 (KHTML, like Gecko) Chrome/114.0.0.0 Safari/537.36" etag="QggkS1tQ1a0ZtN1rcT6Q" version="22.0.4" type="device">
  <diagram name="PÃ¡gina-1" id="d5mJhv-je4iiRnloP6Bp">
    <mxGraphModel dx="1428" dy="1424" grid="1" gridSize="10" guides="1" tooltips="1" connect="1" arrows="1" fold="1" page="1" pageScale="1" pageWidth="1169" pageHeight="827" math="0" shadow="0">
      <root>
        <mxCell id="0" />
        <mxCell id="1" parent="0" />
        <mxCell id="nvDA7rTEmTXVf56XvC5s-22" value="" style="edgeStyle=orthogonalEdgeStyle;rounded=0;orthogonalLoop=1;jettySize=auto;html=1;" edge="1" parent="1" source="nvDA7rTEmTXVf56XvC5s-1" target="nvDA7rTEmTXVf56XvC5s-2">
          <mxGeometry relative="1" as="geometry" />
        </mxCell>
        <mxCell id="nvDA7rTEmTXVf56XvC5s-1" value="INICIO" style="rounded=1;whiteSpace=wrap;html=1;" vertex="1" parent="1">
          <mxGeometry x="525" y="30" width="120" height="60" as="geometry" />
        </mxCell>
        <mxCell id="nvDA7rTEmTXVf56XvC5s-21" value="" style="edgeStyle=orthogonalEdgeStyle;rounded=0;orthogonalLoop=1;jettySize=auto;html=1;" edge="1" parent="1" source="nvDA7rTEmTXVf56XvC5s-2" target="nvDA7rTEmTXVf56XvC5s-3">
          <mxGeometry relative="1" as="geometry" />
        </mxCell>
        <mxCell id="nvDA7rTEmTXVf56XvC5s-2" value="ESCRIBIR&lt;br&gt;&quot;Introduce una letra&quot;" style="shape=parallelogram;perimeter=parallelogramPerimeter;whiteSpace=wrap;html=1;fixedSize=1;" vertex="1" parent="1">
          <mxGeometry x="525" y="190" width="120" height="60" as="geometry" />
        </mxCell>
        <mxCell id="nvDA7rTEmTXVf56XvC5s-6" style="edgeStyle=orthogonalEdgeStyle;rounded=0;orthogonalLoop=1;jettySize=auto;html=1;exitX=0;exitY=0.5;exitDx=0;exitDy=0;entryX=0.5;entryY=0;entryDx=0;entryDy=0;" edge="1" parent="1" source="nvDA7rTEmTXVf56XvC5s-3" target="nvDA7rTEmTXVf56XvC5s-4">
          <mxGeometry relative="1" as="geometry" />
        </mxCell>
        <mxCell id="nvDA7rTEmTXVf56XvC5s-7" style="edgeStyle=orthogonalEdgeStyle;rounded=0;orthogonalLoop=1;jettySize=auto;html=1;exitX=1;exitY=0.5;exitDx=0;exitDy=0;entryX=0.5;entryY=0;entryDx=0;entryDy=0;" edge="1" parent="1" source="nvDA7rTEmTXVf56XvC5s-3" target="nvDA7rTEmTXVf56XvC5s-5">
          <mxGeometry relative="1" as="geometry" />
        </mxCell>
        <mxCell id="nvDA7rTEmTXVf56XvC5s-3" value="caracter.equalsIgnoreCase(&quot;r&quot;)" style="rhombus;whiteSpace=wrap;html=1;" vertex="1" parent="1">
          <mxGeometry x="487" y="330" width="195" height="100" as="geometry" />
        </mxCell>
        <mxCell id="nvDA7rTEmTXVf56XvC5s-26" style="edgeStyle=orthogonalEdgeStyle;rounded=0;orthogonalLoop=1;jettySize=auto;html=1;exitX=0.5;exitY=1;exitDx=0;exitDy=0;" edge="1" parent="1" source="nvDA7rTEmTXVf56XvC5s-4">
          <mxGeometry relative="1" as="geometry">
            <mxPoint x="610" y="1230" as="targetPoint" />
          </mxGeometry>
        </mxCell>
        <mxCell id="nvDA7rTEmTXVf56XvC5s-4" value="ESCRIBE&lt;br&gt;&quot;La letra &quot;+ caracter+&quot; corresponde al color rojo&quot;" style="shape=parallelogram;perimeter=parallelogramPerimeter;whiteSpace=wrap;html=1;fixedSize=1;" vertex="1" parent="1">
          <mxGeometry x="260" y="500" width="120" height="60" as="geometry" />
        </mxCell>
        <mxCell id="nvDA7rTEmTXVf56XvC5s-9" style="edgeStyle=orthogonalEdgeStyle;rounded=0;orthogonalLoop=1;jettySize=auto;html=1;exitX=0;exitY=0.5;exitDx=0;exitDy=0;entryX=0.5;entryY=0;entryDx=0;entryDy=0;" edge="1" parent="1" source="nvDA7rTEmTXVf56XvC5s-5" target="nvDA7rTEmTXVf56XvC5s-8">
          <mxGeometry relative="1" as="geometry" />
        </mxCell>
        <mxCell id="nvDA7rTEmTXVf56XvC5s-13" style="edgeStyle=orthogonalEdgeStyle;rounded=0;orthogonalLoop=1;jettySize=auto;html=1;exitX=1;exitY=0.5;exitDx=0;exitDy=0;" edge="1" parent="1" source="nvDA7rTEmTXVf56XvC5s-5" target="nvDA7rTEmTXVf56XvC5s-10">
          <mxGeometry relative="1" as="geometry" />
        </mxCell>
        <mxCell id="nvDA7rTEmTXVf56XvC5s-5" value="caracter.equalsIgnoreCase(&quot;v&quot;)" style="rhombus;whiteSpace=wrap;html=1;" vertex="1" parent="1">
          <mxGeometry x="682" y="450" width="195" height="100" as="geometry" />
        </mxCell>
        <mxCell id="nvDA7rTEmTXVf56XvC5s-24" style="edgeStyle=orthogonalEdgeStyle;rounded=0;orthogonalLoop=1;jettySize=auto;html=1;exitX=0.5;exitY=1;exitDx=0;exitDy=0;entryX=0.5;entryY=0;entryDx=0;entryDy=0;" edge="1" parent="1" source="nvDA7rTEmTXVf56XvC5s-8" target="nvDA7rTEmTXVf56XvC5s-23">
          <mxGeometry relative="1" as="geometry" />
        </mxCell>
        <mxCell id="nvDA7rTEmTXVf56XvC5s-8" value="ESCRIBE&lt;br&gt;&quot;La letra &quot;+ caracter+&quot; corresponde al color verde&quot;" style="shape=parallelogram;perimeter=parallelogramPerimeter;whiteSpace=wrap;html=1;fixedSize=1;" vertex="1" parent="1">
          <mxGeometry x="550" y="620" width="120" height="60" as="geometry" />
        </mxCell>
        <mxCell id="nvDA7rTEmTXVf56XvC5s-12" style="edgeStyle=orthogonalEdgeStyle;rounded=0;orthogonalLoop=1;jettySize=auto;html=1;exitX=0;exitY=0.5;exitDx=0;exitDy=0;" edge="1" parent="1" source="nvDA7rTEmTXVf56XvC5s-10" target="nvDA7rTEmTXVf56XvC5s-11">
          <mxGeometry relative="1" as="geometry" />
        </mxCell>
        <mxCell id="nvDA7rTEmTXVf56XvC5s-18" style="edgeStyle=orthogonalEdgeStyle;rounded=0;orthogonalLoop=1;jettySize=auto;html=1;exitX=1;exitY=0.5;exitDx=0;exitDy=0;entryX=0.5;entryY=0;entryDx=0;entryDy=0;" edge="1" parent="1" source="nvDA7rTEmTXVf56XvC5s-10" target="nvDA7rTEmTXVf56XvC5s-14">
          <mxGeometry relative="1" as="geometry" />
        </mxCell>
        <mxCell id="nvDA7rTEmTXVf56XvC5s-10" value="caracter.equalsIgnoreCase(&quot;a&quot;)" style="rhombus;whiteSpace=wrap;html=1;" vertex="1" parent="1">
          <mxGeometry x="890" y="600" width="195" height="100" as="geometry" />
        </mxCell>
        <mxCell id="nvDA7rTEmTXVf56XvC5s-25" style="edgeStyle=orthogonalEdgeStyle;rounded=0;orthogonalLoop=1;jettySize=auto;html=1;exitX=0.5;exitY=1;exitDx=0;exitDy=0;entryX=0.5;entryY=0;entryDx=0;entryDy=0;" edge="1" parent="1" source="nvDA7rTEmTXVf56XvC5s-11" target="nvDA7rTEmTXVf56XvC5s-23">
          <mxGeometry relative="1" as="geometry" />
        </mxCell>
        <mxCell id="nvDA7rTEmTXVf56XvC5s-11" value="ESCRIBE&lt;br&gt;&quot;La letra &quot;+ caracter+&quot; corresponde al color azul&quot;" style="shape=parallelogram;perimeter=parallelogramPerimeter;whiteSpace=wrap;html=1;fixedSize=1;" vertex="1" parent="1">
          <mxGeometry x="757" y="800" width="120" height="60" as="geometry" />
        </mxCell>
        <mxCell id="nvDA7rTEmTXVf56XvC5s-17" style="edgeStyle=orthogonalEdgeStyle;rounded=0;orthogonalLoop=1;jettySize=auto;html=1;exitX=0;exitY=0.5;exitDx=0;exitDy=0;entryX=0.5;entryY=0;entryDx=0;entryDy=0;" edge="1" parent="1" source="nvDA7rTEmTXVf56XvC5s-14" target="nvDA7rTEmTXVf56XvC5s-16">
          <mxGeometry relative="1" as="geometry" />
        </mxCell>
        <mxCell id="nvDA7rTEmTXVf56XvC5s-20" style="edgeStyle=orthogonalEdgeStyle;rounded=0;orthogonalLoop=1;jettySize=auto;html=1;exitX=1;exitY=0.5;exitDx=0;exitDy=0;" edge="1" parent="1" source="nvDA7rTEmTXVf56XvC5s-14" target="nvDA7rTEmTXVf56XvC5s-19">
          <mxGeometry relative="1" as="geometry" />
        </mxCell>
        <mxCell id="nvDA7rTEmTXVf56XvC5s-14" value="caracter.equalsIgnoreCase(&quot;n&quot;)" style="rhombus;whiteSpace=wrap;html=1;" vertex="1" parent="1">
          <mxGeometry x="1040" y="780" width="195" height="100" as="geometry" />
        </mxCell>
        <mxCell id="nvDA7rTEmTXVf56XvC5s-27" style="edgeStyle=orthogonalEdgeStyle;rounded=0;orthogonalLoop=1;jettySize=auto;html=1;exitX=0.5;exitY=1;exitDx=0;exitDy=0;entryX=0.5;entryY=0;entryDx=0;entryDy=0;" edge="1" parent="1" source="nvDA7rTEmTXVf56XvC5s-16" target="nvDA7rTEmTXVf56XvC5s-23">
          <mxGeometry relative="1" as="geometry" />
        </mxCell>
        <mxCell id="nvDA7rTEmTXVf56XvC5s-16" value="ESCRIBE&lt;br&gt;&quot;La letra &quot;+ caracter+&quot; corresponde al color negro&quot;" style="shape=parallelogram;perimeter=parallelogramPerimeter;whiteSpace=wrap;html=1;fixedSize=1;" vertex="1" parent="1">
          <mxGeometry x="920" y="980" width="120" height="60" as="geometry" />
        </mxCell>
        <mxCell id="nvDA7rTEmTXVf56XvC5s-28" style="edgeStyle=orthogonalEdgeStyle;rounded=0;orthogonalLoop=1;jettySize=auto;html=1;exitX=0.5;exitY=1;exitDx=0;exitDy=0;" edge="1" parent="1" source="nvDA7rTEmTXVf56XvC5s-19" target="nvDA7rTEmTXVf56XvC5s-23">
          <mxGeometry relative="1" as="geometry" />
        </mxCell>
        <mxCell id="nvDA7rTEmTXVf56XvC5s-19" value="ESCRIBE&lt;br&gt;caracter+&quot; no corresponde a ningun color&quot;" style="shape=parallelogram;perimeter=parallelogramPerimeter;whiteSpace=wrap;html=1;fixedSize=1;" vertex="1" parent="1">
          <mxGeometry x="1260" y="980" width="120" height="60" as="geometry" />
        </mxCell>
        <mxCell id="nvDA7rTEmTXVf56XvC5s-31" value="" style="edgeStyle=orthogonalEdgeStyle;rounded=0;orthogonalLoop=1;jettySize=auto;html=1;" edge="1" parent="1" source="nvDA7rTEmTXVf56XvC5s-23" target="nvDA7rTEmTXVf56XvC5s-30">
          <mxGeometry relative="1" as="geometry" />
        </mxCell>
        <mxCell id="nvDA7rTEmTXVf56XvC5s-23" value="" style="ellipse;whiteSpace=wrap;html=1;aspect=fixed;" vertex="1" parent="1">
          <mxGeometry x="570" y="1201" width="80" height="80" as="geometry" />
        </mxCell>
        <mxCell id="nvDA7rTEmTXVf56XvC5s-30" value="FIN" style="rounded=1;whiteSpace=wrap;html=1;" vertex="1" parent="1">
          <mxGeometry x="550" y="1390" width="120" height="60" as="geometry" />
        </mxCell>
        <mxCell id="nvDA7rTEmTXVf56XvC5s-32" value="SI" style="text;html=1;align=center;verticalAlign=middle;resizable=0;points=[];autosize=1;strokeColor=none;fillColor=none;" vertex="1" parent="1">
          <mxGeometry x="415" y="348" width="30" height="30" as="geometry" />
        </mxCell>
        <mxCell id="nvDA7rTEmTXVf56XvC5s-33" value="NO" style="text;html=1;align=center;verticalAlign=middle;resizable=0;points=[];autosize=1;strokeColor=none;fillColor=none;" vertex="1" parent="1">
          <mxGeometry x="730" y="348" width="40" height="30" as="geometry" />
        </mxCell>
        <mxCell id="nvDA7rTEmTXVf56XvC5s-34" value="SI" style="text;html=1;align=center;verticalAlign=middle;resizable=0;points=[];autosize=1;strokeColor=none;fillColor=none;" vertex="1" parent="1">
          <mxGeometry x="625" y="468" width="30" height="30" as="geometry" />
        </mxCell>
        <mxCell id="nvDA7rTEmTXVf56XvC5s-35" value="NO" style="text;html=1;align=center;verticalAlign=middle;resizable=0;points=[];autosize=1;strokeColor=none;fillColor=none;" vertex="1" parent="1">
          <mxGeometry x="920" y="468" width="40" height="30" as="geometry" />
        </mxCell>
        <mxCell id="nvDA7rTEmTXVf56XvC5s-36" value="SI" style="text;html=1;align=center;verticalAlign=middle;resizable=0;points=[];autosize=1;strokeColor=none;fillColor=none;" vertex="1" parent="1">
          <mxGeometry x="825" y="628" width="30" height="30" as="geometry" />
        </mxCell>
        <mxCell id="nvDA7rTEmTXVf56XvC5s-37" value="NO" style="text;html=1;align=center;verticalAlign=middle;resizable=0;points=[];autosize=1;strokeColor=none;fillColor=none;" vertex="1" parent="1">
          <mxGeometry x="1100" y="618" width="40" height="30" as="geometry" />
        </mxCell>
        <mxCell id="nvDA7rTEmTXVf56XvC5s-38" value="SI" style="text;html=1;align=center;verticalAlign=middle;resizable=0;points=[];autosize=1;strokeColor=none;fillColor=none;" vertex="1" parent="1">
          <mxGeometry x="985" y="808" width="30" height="30" as="geometry" />
        </mxCell>
        <mxCell id="nvDA7rTEmTXVf56XvC5s-39" value="NO" style="text;html=1;align=center;verticalAlign=middle;resizable=0;points=[];autosize=1;strokeColor=none;fillColor=none;" vertex="1" parent="1">
          <mxGeometry x="1270" y="798" width="40" height="30" as="geometry" />
        </mxCell>
      </root>
    </mxGraphModel>
  </diagram>
</mxfile>
